<?xml version="1.0" encoding="UTF-8" standalone="no"?>
<!DOCTYPE svg PUBLIC "-//W3C//DTD SVG 1.1//EN"
 "http://www.w3.org/Graphics/SVG/1.1/DTD/svg11.dtd">
<!-- Generated by graphviz version 2.36.0 (20140111.2315)
 -->
<!-- Title: G Pages: 1 -->
<svg width="1047pt" height="500pt"
 viewBox="0.00 0.00 1046.96 500.16" xmlns="http://www.w3.org/2000/svg" xmlns:xlink="http://www.w3.org/1999/xlink">
<g id="graph0" class="graph" transform="scale(1 1) rotate(0) translate(4 496.156)">
<title>G</title>
<polygon fill="white" stroke="none" points="-4,4 -4,-496.156 1042.96,-496.156 1042.96,4 -4,4"/>
<!-- Section -->
<g id="node1" class="node"><title>Section</title>
<polygon fill="#ee9a49" stroke="none" points="8.5,-89.5853 8.5,-111.585 81.5,-111.585 81.5,-89.5853 8.5,-89.5853"/>
<polygon fill="none" stroke="black" points="8.5,-89.5853 8.5,-111.585 81.5,-111.585 81.5,-89.5853 8.5,-89.5853"/>
<text text-anchor="start" x="24.5" y="-96.8853" font-family="Times,serif" font-size="14.00">Section</text>
<polygon fill="#eecfa1" stroke="none" points="8.5,-68.5853 8.5,-89.5853 81.5,-89.5853 81.5,-68.5853 8.5,-68.5853"/>
<polygon fill="none" stroke="black" points="8.5,-68.5853 8.5,-89.5853 81.5,-89.5853 81.5,-68.5853 8.5,-68.5853"/>
<text text-anchor="start" x="12" y="-76.3853" font-family="Times,serif" text-decoration="underline" font-size="14.00">nomSection</text>
</g>
<!-- etreCompose -->
<g id="node2" class="node"><title>etreCompose</title>
<ellipse fill="#e3e3e3" stroke="black" cx="136.288" cy="-112.141" rx="42.4939" ry="18"/>
<text text-anchor="middle" x="136.288" y="-108.441" font-family="Times,serif" font-size="14.00">composé</text>
</g>
<!-- Section&#45;&#45;etreCompose -->
<g id="edge1" class="edge"><title>Section&#45;&#45;etreCompose</title>
<path fill="none" stroke="black" d="M89.0494,-101.047C92.4294,-101.841 95.8192,-102.637 99.1453,-103.418"/>
<text text-anchor="middle" x="99.5973" y="-91.0328" font-family="Times,serif" font-size="14.00">0..n</text>
</g>
<!-- SousSection -->
<g id="node3" class="node"><title>SousSection</title>
<polygon fill="#ee9a49" stroke="none" points="192.193,-118.543 192.193,-140.543 271.193,-140.543 271.193,-118.543 192.193,-118.543"/>
<polygon fill="none" stroke="black" points="192.193,-118.543 192.193,-140.543 271.193,-140.543 271.193,-118.543 192.193,-118.543"/>
<text text-anchor="start" x="195.693" y="-125.843" font-family="Times,serif" font-size="14.00">Sous&#45;Section</text>
<polygon fill="#eecfa1" stroke="none" points="192.193,-97.5425 192.193,-118.543 271.193,-118.543 271.193,-97.5425 192.193,-97.5425"/>
<polygon fill="none" stroke="black" points="192.193,-97.5425 192.193,-118.543 271.193,-118.543 271.193,-97.5425 192.193,-97.5425"/>
<text text-anchor="start" x="201.193" y="-104.343" font-family="Times,serif" font-size="14.00">description</text>
</g>
<!-- SousSection&#45;&#45;etreCompose -->
<g id="edge2" class="edge"><title>SousSection&#45;&#45;etreCompose</title>
<path fill="none" stroke="black" d="M183.462,-115.82C181.616,-115.676 179.77,-115.532 177.936,-115.389"/>
<text text-anchor="middle" x="180.699" y="-104.404" font-family="Times,serif" font-size="14.00">1,1</text>
</g>
<!-- contenir1 -->
<g id="node4" class="node"><title>contenir1</title>
<ellipse fill="#e3e3e3" stroke="black" cx="318.167" cy="-160.453" rx="44.393" ry="18"/>
<text text-anchor="middle" x="318.167" y="-156.753" font-family="Times,serif" font-size="14.00">contenir1</text>
</g>
<!-- SousSection&#45;&#45;contenir1 -->
<g id="edge3" class="edge"><title>SousSection&#45;&#45;contenir1</title>
<path fill="none" stroke="black" d="M278.752,-141.913C282.242,-143.555 285.696,-145.18 289.025,-146.745"/>
<text text-anchor="middle" x="294.888" y="-133.129" font-family="Times,serif" font-size="14.00">0..n</text>
</g>
<!-- Sujet -->
<g id="node5" class="node"><title>Sujet</title>
<polygon fill="#ee9a49" stroke="none" points="395.243,-169.262 395.243,-191.262 430.243,-191.262 430.243,-169.262 395.243,-169.262"/>
<polygon fill="none" stroke="black" points="395.243,-169.262 395.243,-191.262 430.243,-191.262 430.243,-169.262 395.243,-169.262"/>
<text text-anchor="start" x="398.743" y="-176.562" font-family="Times,serif" font-size="14.00">Sujet</text>
</g>
<!-- Sujet&#45;&#45;contenir1 -->
<g id="edge4" class="edge"><title>Sujet&#45;&#45;contenir1</title>
<path fill="none" stroke="black" d="M385.033,-174.533C376.459,-172.727 366.809,-170.695 357.564,-168.749"/>
<text text-anchor="middle" x="375.798" y="-160.441" font-family="Times,serif" font-size="14.00">1,1</text>
</g>
<!-- contenir2 -->
<g id="node6" class="node"><title>contenir2</title>
<ellipse fill="#e3e3e3" stroke="black" cx="509.44" cy="-186.459" rx="44.393" ry="18"/>
<text text-anchor="middle" x="509.44" y="-182.759" font-family="Times,serif" font-size="14.00">contenir2</text>
</g>
<!-- Sujet&#45;&#45;contenir2 -->
<g id="edge5" class="edge"><title>Sujet&#45;&#45;contenir2</title>
<path fill="none" stroke="black" d="M439.318,-181.989C447.519,-182.511 456.745,-183.1 465.744,-183.673"/>
<text text-anchor="middle" x="452.531" y="-171.631" font-family="Times,serif" font-size="14.00">0..n</text>
</g>
<!-- Post -->
<g id="node7" class="node"><title>Post</title>
<polygon fill="#ee9a49" stroke="none" points="586.045,-212.537 586.045,-234.537 628.045,-234.537 628.045,-212.537 586.045,-212.537"/>
<polygon fill="none" stroke="black" points="586.045,-212.537 586.045,-234.537 628.045,-234.537 628.045,-212.537 586.045,-212.537"/>
<text text-anchor="start" x="595.045" y="-219.837" font-family="Times,serif" font-size="14.00">Post</text>
<polygon fill="#eecfa1" stroke="none" points="586.045,-176.537 586.045,-212.537 628.045,-212.537 628.045,-176.537 586.045,-176.537"/>
<polygon fill="none" stroke="black" points="586.045,-176.537 586.045,-212.537 628.045,-212.537 628.045,-176.537 586.045,-176.537"/>
<text text-anchor="start" x="592.045" y="-198.337" font-family="Times,serif" font-size="14.00">Date </text>
<text text-anchor="start" x="589.545" y="-183.337" font-family="Times,serif" font-size="14.00"> Texte</text>
</g>
<!-- Post&#45;&#45;contenir2 -->
<g id="edge6" class="edge"><title>Post&#45;&#45;contenir2</title>
<path fill="none" stroke="black" d="M578.025,-199.865C569.034,-198.107 558.964,-196.139 549.369,-194.264"/>
<text text-anchor="middle" x="568.197" y="-185.864" font-family="Times,serif" font-size="14.00">1,1</text>
</g>
<!-- ecritPar -->
<g id="node8" class="node"><title>ecritPar</title>
<ellipse fill="#e3e3e3" stroke="black" cx="708.187" cy="-231.691" rx="38.1938" ry="18"/>
<text text-anchor="middle" x="708.187" y="-227.991" font-family="Times,serif" font-size="14.00">ecritPar</text>
</g>
<!-- Post&#45;&#45;ecritPar -->
<g id="edge8" class="edge"><title>Post&#45;&#45;ecritPar</title>
<path fill="none" stroke="black" d="M636.3,-213.102C648.201,-216.18 662.031,-219.756 674.364,-222.945"/>
<text text-anchor="middle" x="646.332" y="-221.823" font-family="Times,serif" font-size="14.00">1,1</text>
</g>
<!-- Personne -->
<g id="node9" class="node"><title>Personne</title>
<polygon fill="#ee9a49" stroke="none" points="769.006,-285.511 769.006,-307.511 869.006,-307.511 869.006,-285.511 769.006,-285.511"/>
<polygon fill="none" stroke="black" points="769.006,-285.511 769.006,-307.511 869.006,-307.511 869.006,-285.511 769.006,-285.511"/>
<text text-anchor="start" x="794.006" y="-292.811" font-family="Times,serif" font-size="14.00">Personne</text>
<polygon fill="#eecfa1" stroke="none" points="769.006,-209.511 769.006,-285.511 869.006,-285.511 869.006,-209.511 769.006,-209.511"/>
<polygon fill="none" stroke="black" points="769.006,-209.511 769.006,-285.511 869.006,-285.511 869.006,-209.511 769.006,-209.511"/>
<text text-anchor="start" x="799.506" y="-272.311" font-family="Times,serif" text-decoration="underline" font-size="14.00">pseudo</text>
<text text-anchor="start" x="798.506" y="-258.311" font-family="Times,serif" font-size="14.00"> avatar </text>
<text text-anchor="start" x="800.006" y="-244.311" font-family="Times,serif" font-size="14.00"> anniv </text>
<text text-anchor="start" x="785.006" y="-230.311" font-family="Times,serif" font-size="14.00"> dateInscrip </text>
<text text-anchor="start" x="772.506" y="-216.311" font-family="Times,serif" font-size="14.00"> dateDerConnex </text>
</g>
<!-- Personne&#45;&#45;ecritPar -->
<g id="edge7" class="edge"><title>Personne&#45;&#45;ecritPar</title>
<path fill="none" stroke="black" d="M761,-244.473C754.611,-242.927 748.268,-241.392 742.313,-239.95"/>
<text text-anchor="middle" x="757.156" y="-231.011" font-family="Times,serif" font-size="14.00">0..n</text>
</g>
<!-- redige -->
<g id="node14" class="node"><title>redige</title>
<ellipse fill="#e3e3e3" stroke="black" cx="908.617" cy="-197.831" rx="32.4942" ry="18"/>
<text text-anchor="middle" x="908.617" y="-194.131" font-family="Times,serif" font-size="14.00">redige</text>
</g>
<!-- Personne&#45;&#45;redige -->
<g id="edge13" class="edge"><title>Personne&#45;&#45;redige</title>
<path fill="none" stroke="black" d="M877.024,-219.224C880.792,-216.672 884.424,-214.213 887.798,-211.928"/>
<text text-anchor="middle" x="893.411" y="-219.376" font-family="Times,serif" font-size="14.00">0..n</text>
</g>
<!-- recoit -->
<g id="node10" class="node"><title>recoit</title>
<ellipse fill="#e3e3e3" stroke="black" cx="825.235" cy="-149.313" rx="30.5947" ry="18"/>
<text text-anchor="middle" x="825.235" y="-145.613" font-family="Times,serif" font-size="14.00">reçoit</text>
</g>
<!-- recoit&#45;&#45;Personne -->
<g id="edge9" class="edge"><title>recoit&#45;&#45;Personne</title>
<path fill="none" stroke="black" d="M824.206,-167.345C823.612,-177.764 822.83,-191.471 822.054,-205.081"/>
<text text-anchor="middle" x="812.13" y="-190.013" font-family="Times,serif" font-size="14.00">0..n</text>
</g>
<!-- SujetMP -->
<g id="node11" class="node"><title>SujetMP</title>
<polygon fill="#ee9a49" stroke="none" points="843.338,-61.5853 843.338,-83.5853 899.338,-83.5853 899.338,-61.5853 843.338,-61.5853"/>
<polygon fill="none" stroke="black" points="843.338,-61.5853 843.338,-83.5853 899.338,-83.5853 899.338,-61.5853 843.338,-61.5853"/>
<text text-anchor="start" x="846.838" y="-68.8853" font-family="Times,serif" font-size="14.00">SujetMP</text>
<polygon fill="#eecfa1" stroke="none" points="843.338,-13.5853 843.338,-61.5853 899.338,-61.5853 899.338,-13.5853 843.338,-13.5853"/>
<polygon fill="none" stroke="black" points="843.338,-13.5853 843.338,-61.5853 899.338,-61.5853 899.338,-13.5853 843.338,-13.5853"/>
<text text-anchor="start" x="864.838" y="-48.3853" font-family="Times,serif" text-decoration="underline" font-size="14.00">n°</text>
<text text-anchor="start" x="855.838" y="-34.3853" font-family="Times,serif" font-size="14.00"> date </text>
<text text-anchor="start" x="856.338" y="-20.3853" font-family="Times,serif" font-size="14.00"> titre </text>
</g>
<!-- recoit&#45;&#45;SujetMP -->
<g id="edge10" class="edge"><title>recoit&#45;&#45;SujetMP</title>
<path fill="none" stroke="black" d="M833.266,-131.767C838.838,-119.592 846.485,-102.885 853.464,-87.6373"/>
<text text-anchor="middle" x="832.365" y="-113.502" font-family="Times,serif" font-size="14.00">0..n</text>
</g>
<!-- contenir3 -->
<g id="node12" class="node"><title>contenir3</title>
<ellipse fill="#e3e3e3" stroke="black" cx="970.565" cy="-18" rx="44.393" ry="18"/>
<text text-anchor="middle" x="970.565" y="-14.3" font-family="Times,serif" font-size="14.00">contenir3</text>
</g>
<!-- SujetMP&#45;&#45;contenir3 -->
<g id="edge12" class="edge"><title>SujetMP&#45;&#45;contenir3</title>
<path fill="none" stroke="black" d="M907.442,-37.4568C916.53,-34.6556 926.272,-31.6527 935.317,-28.8646"/>
<text text-anchor="middle" x="916.88" y="-21.9607" font-family="Times,serif" font-size="14.00">1,1</text>
</g>
<!-- MP -->
<g id="node13" class="node"><title>MP</title>
<polygon fill="#ee9a49" stroke="none" points="964.654,-117.936 964.654,-139.936 1005.65,-139.936 1005.65,-117.936 964.654,-117.936"/>
<polygon fill="none" stroke="black" points="964.654,-117.936 964.654,-139.936 1005.65,-139.936 1005.65,-117.936 964.654,-117.936"/>
<text text-anchor="start" x="974.654" y="-125.236" font-family="Times,serif" font-size="14.00">MP</text>
<polygon fill="#eecfa1" stroke="none" points="964.654,-96.9362 964.654,-117.936 1005.65,-117.936 1005.65,-96.9362 964.654,-96.9362"/>
<polygon fill="none" stroke="black" points="964.654,-96.9362 964.654,-117.936 1005.65,-117.936 1005.65,-96.9362 964.654,-96.9362"/>
<text text-anchor="start" x="968.154" y="-103.736" font-family="Times,serif" font-size="14.00"> texte </text>
</g>
<!-- MP&#45;&#45;contenir3 -->
<g id="edge11" class="edge"><title>MP&#45;&#45;contenir3</title>
<path fill="none" stroke="black" d="M981.063,-93.2046C978.568,-75.3318 975.306,-51.96 973.084,-36.0463"/>
<text text-anchor="middle" x="966.074" y="-68.4254" font-family="Times,serif" font-size="14.00">0..n</text>
</g>
<!-- MP&#45;&#45;redige -->
<g id="edge14" class="edge"><title>MP&#45;&#45;redige</title>
<path fill="none" stroke="black" d="M959.757,-144.769C947.976,-156.993 934.28,-171.204 924.027,-181.842"/>
<text text-anchor="middle" x="932.892" y="-167.105" font-family="Times,serif" font-size="14.00">1,1</text>
</g>
<!-- concoit -->
<g id="node15" class="node"><title>concoit</title>
<ellipse fill="#e3e3e3" stroke="black" cx="900.228" cy="-342.673" rx="36.2938" ry="18"/>
<text text-anchor="middle" x="900.228" y="-338.973" font-family="Times,serif" font-size="14.00">conçoit</text>
</g>
<!-- concoit&#45;&#45;Personne -->
<g id="edge15" class="edge"><title>concoit&#45;&#45;Personne</title>
<path fill="none" stroke="black" d="M884.181,-326.046C880.021,-321.734 875.309,-316.852 870.368,-311.732"/>
<text text-anchor="middle" x="888.275" y="-307.689" font-family="Times,serif" font-size="14.00">0..n</text>
</g>
<!-- Source -->
<g id="node16" class="node"><title>Source</title>
<polygon fill="#ee9a49" stroke="none" points="921.776,-439.467 921.776,-461.467 999.776,-461.467 999.776,-439.467 921.776,-439.467"/>
<polygon fill="none" stroke="black" points="921.776,-439.467 921.776,-461.467 999.776,-461.467 999.776,-439.467 921.776,-439.467"/>
<text text-anchor="start" x="941.776" y="-446.767" font-family="Times,serif" font-size="14.00">Source</text>
<polygon fill="#eecfa1" stroke="none" points="921.776,-405.467 921.776,-439.467 999.776,-439.467 999.776,-405.467 921.776,-405.467"/>
<polygon fill="none" stroke="black" points="921.776,-405.467 921.776,-439.467 999.776,-439.467 999.776,-405.467 921.776,-405.467"/>
<text text-anchor="start" x="925.276" y="-426.267" font-family="Times,serif" font-size="14.00"> </text>
<text text-anchor="start" x="929.276" y="-426.267" font-family="Times,serif" text-decoration="underline" font-size="14.00">nomSource</text>
<text text-anchor="start" x="992.276" y="-426.267" font-family="Times,serif" font-size="14.00"> </text>
<text text-anchor="start" x="949.276" y="-412.267" font-family="Times,serif" font-size="14.00"> ref </text>
</g>
<!-- concoit&#45;&#45;Source -->
<g id="edge16" class="edge"><title>concoit&#45;&#45;Source</title>
<path fill="none" stroke="black" d="M911.902,-360.179C919.669,-371.825 930.101,-387.469 939.333,-401.313"/>
<text text-anchor="middle" x="914.618" y="-384.546" font-family="Times,serif" font-size="14.00">0..n</text>
</g>
<!-- News -->
<g id="node18" class="node"><title>News</title>
<polygon fill="#ee9a49" stroke="none" points="822.632,-439.918 822.632,-461.918 880.632,-461.918 880.632,-439.918 822.632,-439.918"/>
<polygon fill="none" stroke="black" points="822.632,-439.918 822.632,-461.918 880.632,-461.918 880.632,-439.918 822.632,-439.918"/>
<text text-anchor="start" x="836.132" y="-447.218" font-family="Times,serif" font-size="14.00">News</text>
<polygon fill="#eecfa1" stroke="none" points="822.632,-405.918 822.632,-439.918 880.632,-439.918 880.632,-405.918 822.632,-405.918"/>
<polygon fill="none" stroke="black" points="822.632,-405.918 822.632,-439.918 880.632,-439.918 880.632,-405.918 822.632,-405.918"/>
<text text-anchor="start" x="826.132" y="-426.718" font-family="Times,serif" font-size="14.00"> </text>
<text text-anchor="start" x="830.132" y="-426.718" font-family="Times,serif" text-decoration="underline" font-size="14.00">n°News</text>
<text text-anchor="start" x="873.132" y="-426.718" font-family="Times,serif" font-size="14.00"> </text>
<text text-anchor="start" x="834.632" y="-412.718" font-family="Times,serif" font-size="14.00"> texte </text>
</g>
<!-- concoit&#45;&#45;News -->
<g id="edge17" class="edge"><title>concoit&#45;&#45;News</title>
<path fill="none" stroke="black" d="M890.859,-360.266C884.625,-371.97 876.252,-387.692 868.842,-401.604"/>
<text text-anchor="middle" x="868.85" y="-384.735" font-family="Times,serif" font-size="14.00">0..n</text>
</g>
<!-- Date -->
<g id="node17" class="node"><title>Date</title>
<polygon fill="#ee9a49" stroke="none" points="984.464,-363.353 984.464,-385.353 1031.46,-385.353 1031.46,-363.353 984.464,-363.353"/>
<polygon fill="none" stroke="black" points="984.464,-363.353 984.464,-385.353 1031.46,-385.353 1031.46,-363.353 984.464,-363.353"/>
<text text-anchor="start" x="994.964" y="-370.653" font-family="Times,serif" font-size="14.00">Date</text>
<polygon fill="#eecfa1" stroke="none" points="984.464,-301.353 984.464,-363.353 1031.46,-363.353 1031.46,-301.353 984.464,-301.353"/>
<polygon fill="none" stroke="black" points="984.464,-301.353 984.464,-363.353 1031.46,-363.353 1031.46,-301.353 984.464,-301.353"/>
<text text-anchor="start" x="992.964" y="-350.153" font-family="Times,serif" font-size="14.00"> </text>
<text text-anchor="start" x="996.964" y="-350.153" font-family="Times,serif" text-decoration="underline" font-size="14.00">jour</text>
<text text-anchor="start" x="1018.96" y="-350.153" font-family="Times,serif" font-size="14.00"> </text>
<text text-anchor="start" x="989.964" y="-336.153" font-family="Times,serif" font-size="14.00"> </text>
<text text-anchor="start" x="993.964" y="-336.153" font-family="Times,serif" text-decoration="underline" font-size="14.00">mois</text>
<text text-anchor="start" x="1021.96" y="-336.153" font-family="Times,serif" font-size="14.00"> </text>
<text text-anchor="start" x="987.964" y="-322.153" font-family="Times,serif" font-size="14.00"> </text>
<text text-anchor="start" x="991.964" y="-322.153" font-family="Times,serif" text-decoration="underline" font-size="14.00">année</text>
<text text-anchor="start" x="1023.96" y="-322.153" font-family="Times,serif" font-size="14.00"> </text>
<text text-anchor="start" x="990.464" y="-308.153" font-family="Times,serif" font-size="14.00"> </text>
<text text-anchor="start" x="994.464" y="-308.153" font-family="Times,serif" text-decoration="underline" font-size="14.00">heure</text>
</g>
<!-- Date&#45;&#45;concoit -->
<g id="edge18" class="edge"><title>Date&#45;&#45;concoit</title>
<path fill="none" stroke="black" d="M975.87,-343.153C963.637,-343.076 949.553,-342.986 936.88,-342.906"/>
<text text-anchor="middle" x="961.875" y="-331.829" font-family="Times,serif" font-size="14.00">1..n</text>
</g>
<!-- poste -->
<g id="node19" class="node"><title>poste</title>
<ellipse fill="#e3e3e3" stroke="black" cx="780.347" cy="-360.55" rx="29.4969" ry="18"/>
<text text-anchor="middle" x="780.347" y="-356.85" font-family="Times,serif" font-size="14.00">poste</text>
</g>
<!-- poste&#45;&#45;Personne -->
<g id="edge19" class="edge"><title>poste&#45;&#45;Personne</title>
<path fill="none" stroke="black" d="M787.081,-342.777C790.412,-333.983 794.628,-322.856 798.894,-311.595"/>
<text text-anchor="middle" x="781.988" y="-330.986" font-family="Times,serif" font-size="14.00">0..n</text>
</g>
<!-- poste&#45;&#45;News -->
<g id="edge20" class="edge"><title>poste&#45;&#45;News</title>
<path fill="none" stroke="black" d="M795.465,-376.11C802.74,-383.597 811.745,-392.865 820.398,-401.771"/>
<text text-anchor="middle" x="796.931" y="-392.741" font-family="Times,serif" font-size="14.00">0..n</text>
</g>
<!-- Commentaire -->
<g id="node20" class="node"><title>Commentaire</title>
<polygon fill="#ee9a49" stroke="none" points="684.42,-466.156 684.42,-488.156 767.42,-488.156 767.42,-466.156 684.42,-466.156"/>
<polygon fill="none" stroke="black" points="684.42,-466.156 684.42,-488.156 767.42,-488.156 767.42,-466.156 684.42,-466.156"/>
<text text-anchor="start" x="687.92" y="-473.456" font-family="Times,serif" font-size="14.00">Commentaire</text>
<polygon fill="#eecfa1" stroke="none" points="684.42,-418.156 684.42,-466.156 767.42,-466.156 767.42,-418.156 684.42,-418.156"/>
<polygon fill="none" stroke="black" points="684.42,-418.156 684.42,-466.156 767.42,-466.156 767.42,-418.156 684.42,-418.156"/>
<text text-anchor="start" x="696.42" y="-452.956" font-family="Times,serif" font-size="14.00"> </text>
<text text-anchor="start" x="700.42" y="-452.956" font-family="Times,serif" text-decoration="underline" font-size="14.00">n°Comm</text>
<text text-anchor="start" x="751.42" y="-452.956" font-family="Times,serif" font-size="14.00"> </text>
<text text-anchor="start" x="708.92" y="-438.956" font-family="Times,serif" font-size="14.00"> texte </text>
<text text-anchor="start" x="710.42" y="-424.956" font-family="Times,serif" font-size="14.00"> date </text>
</g>
<!-- poste&#45;&#45;Commentaire -->
<g id="edge21" class="edge"><title>poste&#45;&#45;Commentaire</title>
<path fill="none" stroke="black" d="M770.273,-377.536C764.202,-387.77 756.207,-401.25 748.649,-413.992"/>
<text text-anchor="middle" x="748.461" y="-399.564" font-family="Times,serif" font-size="14.00">0..n</text>
</g>
</g>
</svg>
