<?xml version="1.0" encoding="UTF-8" standalone="no"?>
<!DOCTYPE svg PUBLIC "-//W3C//DTD SVG 1.1//EN"
 "http://www.w3.org/Graphics/SVG/1.1/DTD/svg11.dtd">
<!-- Generated by graphviz version 2.26.3 (20100126.1600)
 -->
<!-- Title: G Pages: 1 -->
<svg width="628pt" height="849pt"
 viewBox="0.00 0.00 628.00 849.00" xmlns="http://www.w3.org/2000/svg" xmlns:xlink="http://www.w3.org/1999/xlink">
<g id="graph1" class="graph" transform="scale(1 1) rotate(0) translate(4 845)">
<title>G</title>
<polygon fill="white" stroke="white" points="-4,5 -4,-845 625,-845 625,5 -4,5"/>
<!-- Section -->
<g id="node1" class="node"><title>Section</title>
<polygon fill="#ee9a49" stroke="#ee9a49" points="323,-816 323,-837 412,-837 412,-816 323,-816"/>
<polygon fill="none" stroke="black" points="323,-816 323,-837 412,-837 412,-816 323,-816"/>
<text text-anchor="start" x="341.5" y="-823.233" font-family="Times Roman,serif" font-size="14.00">Section</text>
<polygon fill="#eecfa1" stroke="#eecfa1" points="323,-796 323,-816 412,-816 412,-796 323,-796"/>
<polygon fill="none" stroke="black" points="323,-796 323,-816 412,-816 412,-796 323,-796"/>
<text text-anchor="start" x="326.5" y="-802.733" font-family="Times Roman,serif" font-size="14.00">nomSection</text>
</g>
<!-- etreCompose -->
<g id="node2" class="node"><title>etreCompose</title>
<ellipse fill="#e3e3e3" stroke="black" cx="561" cy="-796" rx="53.2379" ry="18.3848"/>
<text text-anchor="middle" x="561" y="-792.4" font-family="Times Roman,serif" font-size="14.00">composé</text>
</g>
<!-- Section&#45;&#45;etreCompose -->
<g id="edge2" class="edge"><title>Section&#45;&#45;etreCompose</title>
<path fill="none" stroke="black" d="M419.755,-811.289C447.806,-808.253 482.138,-804.537 509.931,-801.528"/>
<text text-anchor="middle" x="470" y="-812.4" font-family="Times Roman,serif" font-size="14.00">0..n</text>
</g>
<!-- SousSection -->
<g id="node4" class="node"><title>SousSection</title>
<polygon fill="#ee9a49" stroke="#ee9a49" points="319,-748 319,-769 416,-769 416,-748 319,-748"/>
<polygon fill="none" stroke="black" points="319,-748 319,-769 416,-769 416,-748 319,-748"/>
<text text-anchor="start" x="322.5" y="-755.233" font-family="Times Roman,serif" font-size="14.00">Sous&#45;Section</text>
<polygon fill="#eecfa1" stroke="#eecfa1" points="319,-728 319,-748 416,-748 416,-728 319,-728"/>
<polygon fill="none" stroke="black" points="319,-728 319,-748 416,-748 416,-728 319,-728"/>
<text text-anchor="start" x="329.5" y="-734.733" font-family="Times Roman,serif" font-size="14.00">description</text>
</g>
<!-- SousSection&#45;&#45;etreCompose -->
<g id="edge4" class="edge"><title>SousSection&#45;&#45;etreCompose</title>
<path fill="none" stroke="black" d="M423.634,-762.721C453.607,-769.982 489.839,-778.76 517.565,-785.477"/>
<text text-anchor="middle" x="470" y="-781.4" font-family="Times Roman,serif" font-size="14.00">1,1</text>
</g>
<!-- contenir1 -->
<g id="node6" class="node"><title>contenir1</title>
<ellipse fill="#e3e3e3" stroke="black" cx="561" cy="-714" rx="58.1882" ry="18.3848"/>
<text text-anchor="middle" x="561" y="-710.4" font-family="Times Roman,serif" font-size="14.00">contenir1</text>
</g>
<!-- SousSection&#45;&#45;contenir1 -->
<g id="edge6" class="edge"><title>SousSection&#45;&#45;contenir1</title>
<path fill="none" stroke="black" d="M423.634,-738.782C451.035,-733.839 483.666,-727.952 510.248,-723.156"/>
<text text-anchor="middle" x="470" y="-737.4" font-family="Times Roman,serif" font-size="14.00">0..n</text>
</g>
<!-- Sujet -->
<g id="node7" class="node"><title>Sujet</title>
<polygon fill="#ee9a49" stroke="#ee9a49" points="345,-674 345,-695 389,-695 389,-674 345,-674"/>
<polygon fill="none" stroke="black" points="345,-674 345,-695 389,-695 389,-674 345,-674"/>
<text text-anchor="start" x="348.5" y="-681.233" font-family="Times Roman,serif" font-size="14.00">Sujet</text>
</g>
<!-- Sujet&#45;&#45;contenir1 -->
<g id="edge8" class="edge"><title>Sujet&#45;&#45;contenir1</title>
<path fill="none" stroke="black" d="M397.464,-686.294C421.172,-687.617 454.834,-690.186 484,-695 494.868,-696.794 506.463,-699.322 517.27,-701.951"/>
<text text-anchor="middle" x="470" y="-700.4" font-family="Times Roman,serif" font-size="14.00">1,1</text>
</g>
<!-- contenir2 -->
<g id="node10" class="node"><title>contenir2</title>
<ellipse fill="#e3e3e3" stroke="black" cx="561" cy="-632" rx="58.1882" ry="18.3848"/>
<text text-anchor="middle" x="561" y="-628.4" font-family="Times Roman,serif" font-size="14.00">contenir2</text>
</g>
<!-- Sujet&#45;&#45;contenir2 -->
<g id="edge10" class="edge"><title>Sujet&#45;&#45;contenir2</title>
<path fill="none" stroke="black" d="M397.312,-676.719C429.496,-667.926 480.662,-653.948 517.221,-643.96"/>
<text text-anchor="middle" x="470" y="-665.4" font-family="Times Roman,serif" font-size="14.00">0..n</text>
</g>
<!-- Post -->
<g id="node11" class="node"><title>Post</title>
<polygon fill="#ee9a49" stroke="#ee9a49" points="343,-621 343,-642 392,-642 392,-621 343,-621"/>
<polygon fill="none" stroke="black" points="343,-621 343,-642 392,-642 392,-621 343,-621"/>
<text text-anchor="start" x="352.5" y="-628.233" font-family="Times Roman,serif" font-size="14.00">Post</text>
<polygon fill="#eecfa1" stroke="#eecfa1" points="343,-582 343,-621 392,-621 392,-582 343,-582"/>
<polygon fill="none" stroke="black" points="343,-582 343,-621 392,-621 392,-582 343,-582"/>
<text text-anchor="start" x="348" y="-607.733" font-family="Times Roman,serif" font-size="14.00">Date </text>
<text text-anchor="start" x="346.5" y="-590.933" font-family="Times Roman,serif" font-size="14.00"> Texte</text>
</g>
<!-- Post&#45;&#45;contenir2 -->
<g id="edge12" class="edge"><title>Post&#45;&#45;contenir2</title>
<path fill="none" stroke="black" d="M399.918,-610.242C423.438,-609.482 455.784,-609.448 484,-613 495.202,-614.41 507.128,-616.866 518.165,-619.554"/>
<text text-anchor="middle" x="470" y="-618.4" font-family="Times Roman,serif" font-size="14.00">1,1</text>
</g>
<!-- ecritPar -->
<g id="node14" class="node"><title>ecritPar</title>
<ellipse fill="#e3e3e3" stroke="black" cx="561" cy="-532" rx="48.9975" ry="18.3848"/>
<text text-anchor="middle" x="561" y="-528.4" font-family="Times Roman,serif" font-size="14.00">ecritPar</text>
</g>
<!-- Post&#45;&#45;ecritPar -->
<g id="edge16" class="edge"><title>Post&#45;&#45;ecritPar</title>
<path fill="none" stroke="black" d="M399.909,-598.429C435.692,-583.674 492.535,-560.233 528.253,-545.504"/>
<text text-anchor="middle" x="470" y="-579.4" font-family="Times Roman,serif" font-size="14.00">1,1</text>
</g>
<!-- Personne -->
<g id="node15" class="node"><title>Personne</title>
<polygon fill="#ee9a49" stroke="#ee9a49" points="305,-535 305,-556 430,-556 430,-535 305,-535"/>
<polygon fill="none" stroke="black" points="305,-535 305,-556 430,-556 430,-535 305,-535"/>
<text text-anchor="start" x="335" y="-542.233" font-family="Times Roman,serif" font-size="14.00">Personne</text>
<polygon fill="#eecfa1" stroke="#eecfa1" points="305,-445 305,-535 430,-535 430,-445 305,-445"/>
<polygon fill="none" stroke="black" points="305,-445 305,-535 430,-535 430,-445 305,-445"/>
<text text-anchor="start" x="343" y="-521.733" font-family="Times Roman,serif" font-size="14.00">pseudo</text>
<text text-anchor="start" x="340" y="-504.933" font-family="Times Roman,serif" font-size="14.00"> avatar </text>
<text text-anchor="start" x="343.5" y="-488.133" font-family="Times Roman,serif" font-size="14.00"> anniv </text>
<text text-anchor="start" x="325" y="-471.333" font-family="Times Roman,serif" font-size="14.00"> dateInscrip </text>
<text text-anchor="start" x="308.5" y="-454.533" font-family="Times Roman,serif" font-size="14.00"> dateDerConnex </text>
</g>
<!-- Personne&#45;&#45;ecritPar -->
<g id="edge14" class="edge"><title>Personne&#45;&#45;ecritPar</title>
<path fill="none" stroke="black" d="M437.629,-510.003C452.942,-512.138 469.033,-514.521 484,-517 494.883,-518.803 506.588,-520.966 517.505,-523.082"/>
<text text-anchor="middle" x="470" y="-522.4" font-family="Times Roman,serif" font-size="14.00">0..n</text>
</g>
<!-- redige -->
<g id="node26" class="node"><title>redige</title>
<ellipse fill="#e3e3e3" stroke="black" cx="561" cy="-436" rx="41.2167" ry="18.3848"/>
<text text-anchor="middle" x="561" y="-432.4" font-family="Times Roman,serif" font-size="14.00">redige</text>
</g>
<!-- Personne&#45;&#45;redige -->
<g id="edge26" class="edge"><title>Personne&#45;&#45;redige</title>
<path fill="none" stroke="black" d="M437.587,-477.35C468.464,-467.004 503.205,-455.364 527.942,-447.076"/>
<text text-anchor="middle" x="470" y="-475.4" font-family="Times Roman,serif" font-size="14.00">0..n</text>
</g>
<!-- recoit -->
<g id="node18" class="node"><title>recoit</title>
<ellipse fill="#e3e3e3" stroke="black" cx="186" cy="-381" rx="38.8909" ry="18.3848"/>
<text text-anchor="middle" x="186" y="-377.4" font-family="Times Roman,serif" font-size="14.00">reçoit</text>
</g>
<!-- recoit&#45;&#45;Personne -->
<g id="edge19" class="edge"><title>recoit&#45;&#45;Personne</title>
<path fill="none" stroke="black" d="M194.154,-398.89C204.335,-419.201 223.669,-451.863 250,-470 263.758,-479.477 280.254,-486.057 296.461,-490.626"/>
<text text-anchor="middle" x="264" y="-488.4" font-family="Times Roman,serif" font-size="14.00">0..n</text>
</g>
<!-- SujetMP -->
<g id="node19" class="node"><title>SujetMP</title>
<polygon fill="#ee9a49" stroke="#ee9a49" points="335,-333 335,-354 400,-354 400,-333 335,-333"/>
<polygon fill="none" stroke="black" points="335,-333 335,-354 400,-354 400,-333 335,-333"/>
<text text-anchor="start" x="338.5" y="-340.233" font-family="Times Roman,serif" font-size="14.00">SujetMP</text>
<polygon fill="#eecfa1" stroke="#eecfa1" points="335,-277 335,-333 400,-333 400,-277 335,-277"/>
<polygon fill="none" stroke="black" points="335,-277 335,-333 400,-333 400,-277 335,-277"/>
<text text-anchor="start" x="359" y="-319.733" font-family="Times Roman,serif" font-size="14.00">n°</text>
<text text-anchor="start" x="347.5" y="-302.933" font-family="Times Roman,serif" font-size="14.00"> date </text>
<text text-anchor="start" x="348" y="-286.133" font-family="Times Roman,serif" font-size="14.00"> titre </text>
</g>
<!-- recoit&#45;&#45;SujetMP -->
<g id="edge20" class="edge"><title>recoit&#45;&#45;SujetMP</title>
<path fill="none" stroke="black" d="M213.085,-367.807C224.364,-362.556 237.679,-356.665 250,-352 274.943,-342.555 303.549,-333.719 326.232,-327.164"/>
<text text-anchor="middle" x="264" y="-357.4" font-family="Times Roman,serif" font-size="14.00">0..n</text>
</g>
<!-- contenir3 -->
<g id="node22" class="node"><title>contenir3</title>
<ellipse fill="#e3e3e3" stroke="black" cx="561" cy="-361" rx="58.1882" ry="18.3848"/>
<text text-anchor="middle" x="561" y="-357.4" font-family="Times Roman,serif" font-size="14.00">contenir3</text>
</g>
<!-- SujetMP&#45;&#45;contenir3 -->
<g id="edge24" class="edge"><title>SujetMP&#45;&#45;contenir3</title>
<path fill="none" stroke="black" d="M407.669,-325.433C438.779,-332.65 481.719,-342.61 514.247,-350.155"/>
<text text-anchor="middle" x="470" y="-348.4" font-family="Times Roman,serif" font-size="14.00">1,1</text>
</g>
<!-- MP -->
<g id="node23" class="node"><title>MP</title>
<polygon fill="#ee9a49" stroke="#ee9a49" points="341,-399 341,-420 394,-420 394,-399 341,-399"/>
<polygon fill="none" stroke="black" points="341,-399 341,-420 394,-420 394,-399 341,-399"/>
<text text-anchor="start" x="356.5" y="-406.233" font-family="Times Roman,serif" font-size="14.00">MP</text>
<polygon fill="#eecfa1" stroke="#eecfa1" points="341,-379 341,-399 394,-399 394,-379 341,-379"/>
<polygon fill="none" stroke="black" points="341,-379 341,-399 394,-399 394,-379 341,-379"/>
<text text-anchor="start" x="344.5" y="-385.733" font-family="Times Roman,serif" font-size="14.00"> texte </text>
</g>
<!-- MP&#45;&#45;contenir3 -->
<g id="edge22" class="edge"><title>MP&#45;&#45;contenir3</title>
<path fill="none" stroke="black" d="M401.683,-393.028C432.309,-386.871 477.306,-377.825 511.675,-370.916"/>
<text text-anchor="middle" x="470" y="-387.4" font-family="Times Roman,serif" font-size="14.00">0..n</text>
</g>
<!-- MP&#45;&#45;redige -->
<g id="edge28" class="edge"><title>MP&#45;&#45;redige</title>
<path fill="none" stroke="black" d="M401.683,-406.436C435.687,-412.746 487.409,-422.344 522.628,-428.879"/>
<text text-anchor="middle" x="470" y="-427.4" font-family="Times Roman,serif" font-size="14.00">1,1</text>
</g>
<!-- concoit -->
<g id="node29" class="node"><title>concoit</title>
<ellipse fill="#e3e3e3" stroke="black" cx="186" cy="-222" rx="45.9619" ry="18.3848"/>
<text text-anchor="middle" x="186" y="-218.4" font-family="Times Roman,serif" font-size="14.00">conçoit</text>
</g>
<!-- concoit&#45;&#45;Personne -->
<g id="edge31" class="edge"><title>concoit&#45;&#45;Personne</title>
<path fill="none" stroke="black" d="M192.5,-239.85C201.646,-265.142 218.683,-312.906 232,-354 240.583,-380.485 234.018,-391.203 250,-414 262.278,-431.514 279.198,-446.945 296.358,-459.76"/>
<text text-anchor="middle" x="264" y="-448.4" font-family="Times Roman,serif" font-size="14.00">0..n</text>
</g>
<!-- Source -->
<g id="node30" class="node"><title>Source</title>
<polygon fill="#ee9a49" stroke="#ee9a49" points="320,-231 320,-252 414,-252 414,-231 320,-231"/>
<polygon fill="none" stroke="black" points="320,-231 320,-252 414,-252 414,-231 320,-231"/>
<text text-anchor="start" x="343.5" y="-238.233" font-family="Times Roman,serif" font-size="14.00">Source</text>
<polygon fill="#eecfa1" stroke="#eecfa1" points="320,-192 320,-231 414,-231 414,-192 320,-192"/>
<polygon fill="none" stroke="black" points="320,-192 320,-231 414,-231 414,-192 320,-192"/>
<text text-anchor="start" x="323.5" y="-217.733" font-family="Times Roman,serif" font-size="14.00"> </text>
<text text-anchor="start" x="328.5" y="-217.733" font-family="Times Roman,serif" font-size="14.00">nomSource</text>
<text text-anchor="start" x="405.5" y="-217.733" font-family="Times Roman,serif" font-size="14.00"> </text>
<text text-anchor="start" x="353" y="-200.933" font-family="Times Roman,serif" font-size="14.00"> ref </text>
</g>
<!-- concoit&#45;&#45;Source -->
<g id="edge32" class="edge"><title>concoit&#45;&#45;Source</title>
<path fill="none" stroke="black" d="M232.142,-222C256.441,-222 286.409,-222 311.918,-222"/>
<text text-anchor="middle" x="264" y="-227.4" font-family="Times Roman,serif" font-size="14.00">0..n</text>
</g>
<!-- News -->
<g id="node32" class="node"><title>News</title>
<polygon fill="#ee9a49" stroke="#ee9a49" points="331,-145 331,-166 403,-166 403,-145 331,-145"/>
<polygon fill="none" stroke="black" points="331,-145 331,-166 403,-166 403,-145 331,-145"/>
<text text-anchor="start" x="347.5" y="-152.233" font-family="Times Roman,serif" font-size="14.00">News</text>
<polygon fill="#eecfa1" stroke="#eecfa1" points="331,-106 331,-145 403,-145 403,-106 331,-106"/>
<polygon fill="none" stroke="black" points="331,-106 331,-145 403,-145 403,-106 331,-106"/>
<text text-anchor="start" x="334.5" y="-131.733" font-family="Times Roman,serif" font-size="14.00"> </text>
<text text-anchor="start" x="339.5" y="-131.733" font-family="Times Roman,serif" font-size="14.00">n°News</text>
<text text-anchor="start" x="394.5" y="-131.733" font-family="Times Roman,serif" font-size="14.00"> </text>
<text text-anchor="start" x="344" y="-114.933" font-family="Times Roman,serif" font-size="14.00"> texte </text>
</g>
<!-- concoit&#45;&#45;News -->
<g id="edge33" class="edge"><title>concoit&#45;&#45;News</title>
<path fill="none" stroke="black" d="M215.484,-207.991C244.634,-194.141 289.593,-172.779 322.975,-156.918"/>
<text text-anchor="middle" x="264" y="-195.4" font-family="Times Roman,serif" font-size="14.00">0..n</text>
</g>
<!-- Date -->
<g id="node31" class="node"><title>Date</title>
<polygon fill="#ee9a49" stroke="#ee9a49" points="8,-248 8,-269 68,-269 68,-248 8,-248"/>
<polygon fill="none" stroke="black" points="8,-248 8,-269 68,-269 68,-248 8,-248"/>
<text text-anchor="start" x="21" y="-255.233" font-family="Times Roman,serif" font-size="14.00">Date</text>
<polygon fill="#eecfa1" stroke="#eecfa1" points="8,-175 8,-248 68,-248 68,-175 8,-175"/>
<polygon fill="none" stroke="black" points="8,-175 8,-248 68,-248 68,-175 8,-175"/>
<text text-anchor="start" x="19" y="-234.733" font-family="Times Roman,serif" font-size="14.00"> </text>
<text text-anchor="start" x="24" y="-234.733" font-family="Times Roman,serif" font-size="14.00">jour</text>
<text text-anchor="start" x="52" y="-234.733" font-family="Times Roman,serif" font-size="14.00"> </text>
<text text-anchor="start" x="17" y="-217.933" font-family="Times Roman,serif" font-size="14.00"> </text>
<text text-anchor="start" x="22" y="-217.933" font-family="Times Roman,serif" font-size="14.00">mois</text>
<text text-anchor="start" x="54" y="-217.933" font-family="Times Roman,serif" font-size="14.00"> </text>
<text text-anchor="start" x="11.5" y="-201.133" font-family="Times Roman,serif" font-size="14.00"> </text>
<text text-anchor="start" x="16.5" y="-201.133" font-family="Times Roman,serif" font-size="14.00">année</text>
<text text-anchor="start" x="59.5" y="-201.133" font-family="Times Roman,serif" font-size="14.00"> </text>
<text text-anchor="start" x="15" y="-184.333" font-family="Times Roman,serif" font-size="14.00"> </text>
<text text-anchor="start" x="20" y="-184.333" font-family="Times Roman,serif" font-size="14.00">heure</text>
</g>
<!-- Date&#45;&#45;concoit -->
<g id="edge35" class="edge"><title>Date&#45;&#45;concoit</title>
<path fill="none" stroke="black" d="M76.1137,-222C95.5556,-222 119.358,-222 139.833,-222"/>
<text text-anchor="middle" x="108" y="-227.4" font-family="Times Roman,serif" font-size="14.00">1..n</text>
</g>
<!-- poste -->
<g id="node36" class="node"><title>poste</title>
<ellipse fill="#e3e3e3" stroke="black" cx="186" cy="-136" rx="38.1838" ry="18.3848"/>
<text text-anchor="middle" x="186" y="-132.4" font-family="Times Roman,serif" font-size="14.00">poste</text>
</g>
<!-- poste&#45;&#45;Personne -->
<g id="edge38" class="edge"><title>poste&#45;&#45;Personne</title>
<path fill="none" stroke="black" d="M202.96,-152.425C213.207,-163.444 225.506,-178.852 232,-195 261.173,-267.542 212.264,-301.521 250,-370 257.638,-383.861 268.306,-379.49 278,-392 290.19,-407.731 284.594,-416.692 296,-433 298.054,-435.937 300.249,-438.85 302.548,-441.723"/>
<text text-anchor="middle" x="264" y="-397.4" font-family="Times Roman,serif" font-size="14.00">0..n</text>
</g>
<!-- poste&#45;&#45;News -->
<g id="edge39" class="edge"><title>poste&#45;&#45;News</title>
<path fill="none" stroke="black" d="M224.385,-136C253.234,-136 292.8,-136 322.939,-136"/>
<text text-anchor="middle" x="264" y="-141.4" font-family="Times Roman,serif" font-size="14.00">0..n</text>
</g>
<!-- Commentaire -->
<g id="node37" class="node"><title>Commentaire</title>
<polygon fill="#ee9a49" stroke="#ee9a49" points="317,-59 317,-80 417,-80 417,-59 317,-59"/>
<polygon fill="none" stroke="black" points="317,-59 317,-80 417,-80 417,-59 317,-59"/>
<text text-anchor="start" x="320.5" y="-66.2333" font-family="Times Roman,serif" font-size="14.00">Commentaire</text>
<polygon fill="#eecfa1" stroke="#eecfa1" points="317,-3 317,-59 417,-59 417,-3 317,-3"/>
<polygon fill="none" stroke="black" points="317,-3 317,-59 417,-59 417,-3 317,-3"/>
<text text-anchor="start" x="331.5" y="-45.7333" font-family="Times Roman,serif" font-size="14.00"> </text>
<text text-anchor="start" x="336.5" y="-45.7333" font-family="Times Roman,serif" font-size="14.00">n°Comm</text>
<text text-anchor="start" x="397.5" y="-45.7333" font-family="Times Roman,serif" font-size="14.00"> </text>
<text text-anchor="start" x="344" y="-28.9333" font-family="Times Roman,serif" font-size="14.00"> texte </text>
<text text-anchor="start" x="347" y="-12.1333" font-family="Times Roman,serif" font-size="14.00"> date </text>
</g>
<!-- poste&#45;&#45;Commentaire -->
<g id="edge40" class="edge"><title>poste&#45;&#45;Commentaire</title>
<path fill="none" stroke="black" d="M211.933,-122.532C237.152,-109.435 276.33,-89.0881 308.995,-72.124"/>
<text text-anchor="middle" x="264" y="-106.4" font-family="Times Roman,serif" font-size="14.00">0..n</text>
</g>
</g>
</svg>
