<?xml version="1.0" encoding="UTF-8" standalone="no"?>
<!DOCTYPE svg PUBLIC "-//W3C//DTD SVG 1.1//EN"
 "http://www.w3.org/Graphics/SVG/1.1/DTD/svg11.dtd">
<!-- Generated by graphviz version 2.36.0 (20140111.2315)
 -->
<!-- Title: G Pages: 1 -->
<svg width="278pt" height="127pt"
 viewBox="0.00 0.00 278.00 127.00" xmlns="http://www.w3.org/2000/svg" xmlns:xlink="http://www.w3.org/1999/xlink">
<g id="graph0" class="graph" transform="scale(1 1) rotate(0) translate(4 123)">
<title>G</title>
<polygon fill="white" stroke="none" points="-4,4 -4,-123 274,-123 274,4 -4,4"/>
<!-- Section -->
<g id="node1" class="node"><title>Section</title>
<polygon fill="#ee9a49" stroke="none" points="12,-93 12,-115 85,-115 85,-93 12,-93"/>
<polygon fill="none" stroke="black" points="12,-93 12,-115 85,-115 85,-93 12,-93"/>
<text text-anchor="start" x="28" y="-100.3" font-family="Times,serif" font-size="14.00">Section</text>
<polygon fill="#eecfa1" stroke="none" points="12,-72 12,-93 85,-93 85,-72 12,-72"/>
<polygon fill="none" stroke="black" points="12,-72 12,-93 85,-93 85,-72 12,-72"/>
<text text-anchor="start" x="15.5" y="-79.8" font-family="Times,serif" text-decoration="underline" font-size="14.00">nomSection</text>
</g>
<!-- etreCompose -->
<g id="node2" class="node"><title>etreCompose</title>
<ellipse fill="#e3e3e3" stroke="black" cx="212" cy="-59" rx="57.6901" ry="18"/>
<text text-anchor="middle" x="212" y="-55.3" font-family="Times,serif" font-size="14.00">etreComposé</text>
</g>
<!-- Section&#45;&#45;etreCompose -->
<g id="edge1" class="edge"><title>Section&#45;&#45;etreCompose</title>
<path fill="none" stroke="black" d="M92.8395,-84.5285C114.86,-79.7709 141.559,-74.0027 164.003,-69.1537"/>
<text text-anchor="middle" x="125" y="-82.8" font-family="Times,serif" font-size="14.00">0..n</text>
</g>
<!-- SousSection -->
<g id="node3" class="node"><title>SousSection</title>
<polygon fill="#ee9a49" stroke="none" points="9,-24 9,-46 88,-46 88,-24 9,-24"/>
<polygon fill="none" stroke="black" points="9,-24 9,-46 88,-46 88,-24 9,-24"/>
<text text-anchor="start" x="12.5" y="-31.3" font-family="Times,serif" font-size="14.00">Sous&#45;Section</text>
<polygon fill="#eecfa1" stroke="none" points="9,-3 9,-24 88,-24 88,-3 9,-3"/>
<polygon fill="none" stroke="black" points="9,-3 9,-24 88,-24 88,-3 9,-3"/>
<text text-anchor="start" x="18" y="-9.8" font-family="Times,serif" font-size="14.00">description</text>
</g>
<!-- SousSection&#45;&#45;etreCompose -->
<g id="edge2" class="edge"><title>SousSection&#45;&#45;etreCompose</title>
<path fill="none" stroke="black" d="M95.8571,-34.8342C117.163,-39.3058 142.327,-44.587 163.687,-49.0701"/>
<text text-anchor="middle" x="125" y="-46.8" font-family="Times,serif" font-size="14.00">1,1</text>
</g>
</g>
</svg>
